<svg width="28" height="28" viewBox="0 0 114 109"
                            fill="none" xmlns="http://www.w3.org/2000/svg">
                            <line y1="-0.5" x2="46.5231" y2="-0.5"
                                transform="matrix(0.745315 0.666712 -0.588049 0.808825 39.6817 41.0353)"
                                stroke="#F8762C" />
                            <line y1="-0.5" x2="46.5231" y2="-0.5"
                                transform="matrix(-0.745315 0.666712 -0.588049 -0.808825 74.2041 41.0353)"
                                stroke="#F8762C" />
                            <rect width="19.8595" height="6.04899"
                                transform="matrix(0.715976 0.698125 -0.621101 0.78373 66.8249 33.6238)"
                                fill="#F8762C" />
                            <rect width="19.8595" height="6.04899"
                                transform="matrix(0.715976 0.698125 -0.621101 0.78373 36.757 62.0347)" fill="#F8762C" />
                            <rect width="19.9252" height="6.02942"
                                transform="matrix(0.693276 -0.720672 0.645372 0.763868 65.2951 76.3943)"
                                fill="#F8762C" />
                            <rect width="19.9608" height="6.01877"
                                transform="matrix(0.680779 -0.732489 0.658288 0.752767 33.1238 45.6211)"
                                fill="#F8762C" />
                            <path
                                d="M87 88.3824C87 99.7692 73.7924 109 57.5 109C41.2076 109 28 99.7693 28 88.3825C28 73.5379 41.2076 101.166 57.5 101.166C73.7924 101.166 87 76.9956 87 88.3824Z"
                                fill="#F8762C" />
                            <path
                                d="M91.3811 24.5013C102.765 24.2245 112.314 37.2037 112.71 53.4913C113.106 69.7789 104.199 83.207 92.8158 83.4839C77.9755 83.8448 105.274 69.9694 104.878 53.6818C104.482 37.3942 79.9977 24.7782 91.3811 24.5013Z"
                                fill="#F8762C" />
                            <path
                                d="M28.061 20.7921C28.0273 9.40539 41.2075 0.135528 57.4998 0.0873037C73.7922 0.0390798 87.0271 9.23067 87.0608 20.6174C87.1047 35.462 73.8154 7.8735 57.523 7.92172C41.2307 7.96994 28.0947 32.1789 28.061 20.7921Z"
                                fill="#F8762C" />
                            <path
                                d="M21.0769 85.0002C9.69287 84.7506 0.753826 71.3438 1.11099 55.0553C1.46816 38.7668 10.9862 25.7648 22.3703 26.0144C37.2113 26.3398 9.30073 38.9386 8.94356 55.2271C8.58639 71.5156 32.461 85.2498 21.0769 85.0002Z"
                                fill="#F8762C" />
                        </svg>